<svg width="50" height="50" viewBox="0 0 50 50" fill="none" xmlns="http://www.w3.org/2000/svg">
<path fill-rule="evenodd" clip-rule="evenodd" d="M13.2325 18.2325C13.7013 17.7638 14.337 17.5006 15 17.5006C15.6629 17.5006 16.2986 17.7638 16.7675 18.2325L25 26.465L33.2325 18.2325C33.4631 17.9937 33.7389 17.8033 34.0439 17.6723C34.349 17.5412 34.677 17.4723 35.009 17.4694C35.3409 17.4665 35.6701 17.5298 35.9773 17.6555C36.2846 17.7812 36.5637 17.9668 36.7984 18.2015C37.0332 18.4363 37.2188 18.7154 37.3445 19.0226C37.4702 19.3299 37.5335 19.6591 37.5306 19.991C37.5277 20.323 37.4587 20.651 37.3277 20.956C37.1967 21.261 37.0062 21.5369 36.7675 21.7675L26.7675 31.7675C26.2986 32.2362 25.6629 32.4995 25 32.4995C24.337 32.4995 23.7013 32.2362 23.2325 31.7675L13.2325 21.7675C12.7638 21.2987 12.5005 20.6629 12.5005 20C12.5005 19.3371 12.7638 18.7013 13.2325 18.2325Z" fill="black"/>
</svg>
