<?xml version="1.0" encoding="UTF-8"?>
<svg id="Layer_2" data-name="Layer 2" xmlns="http://www.w3.org/2000/svg" viewBox="0 0 454.97 215.98">
  <defs>
    <style>
      .cls-1 {
        fill: #221f16;
      }
    </style>
  </defs>
  <g id="Sunscreen_Tube" data-name="Sunscreen Tube">
    <g>
      <path class="cls-1" d="m0,52.42h73.17s0,3.35,0,3.35h-38.58s0,101.48,0,101.48h-17.82s0-101.48,0-101.48H0s0-3.35,0-3.35ZM67.51,18.03c0,2.1-.63,3.98-1.68,6.08,2.94-7.76-2.52-17.19-18.24-17.19-16.56,0-25.37,12.79-25.37,24.74,0,.08,0,.16,0,.24.06,6.2-8.27,8.58-10.96,2.99-1.23-2.57-1.83-5.22-1.83-7.84,0-12.16,13-24.11,36.69-24.11,13,0,21.39,7.13,21.39,15.1Z"/>
      <path class="cls-1" d="m97.49,0h18.03s0,157.25,0,157.25h-18.03S97.49,0,97.49,0Z"/>
      <path class="cls-1" d="m230,77.37c0,15.93-16.77,34.8-56.82,43.61,28.72-11.53,39.21-28.31,39.21-42.14,0-13.63-10.27-24.32-23.27-24.32-19.5,0-28.09,16.56-28.09,36.06,0,28.3,18.03,63.11,46.34,63.11,25.79,0,40.89-27.05,41.93-35.01-2.1,20.13-23.48,41.72-50.95,41.72-37.32,0-55.14-26.84-55.14-55.14,0-37.32,25.58-54.51,50.53-54.51,22.43,0,36.27,12.16,36.27,26.63Z"/>
      <path class="cls-1" d="m331.02,141.91c-2.46,11.17-15.15,17.24-25.75,17.24-41.08,0-42.59-30.29-42.59-56.43v-40.13s16.09,0,16.09,0v43.55c0,20.06,1.52,48.09,28.21,48.09,16.85,0,21.96-7.76,24.04-12.31Z"/>
      <path class="cls-1" d="m398.81,62.59v117.38c0,11.23-2.82,18.72-6.95,22.93-5.9,7.95-15.34,13.09-26,13.09-10.34,0-19.54-4.84-25.46-12.38t-.01-.02c-4.5-4.06-7.66-11.74-7.66-23.61V62.59s16.28,0,16.28,0v116.53c0,3.83.21,7.07.57,9.77.02,3.08.9,5.97,2.42,8.42.33.6.69,1.11,1.08,1.53,2.96,3.76,7.55,6.16,12.7,6.16,5.36,0,10.11-2.61,13.06-6.62.11-.16.23-.31.33-.48.09-.14.2-.3.29-.46,1.59-2.49,2.51-5.47,2.51-8.65v-.09c.35-2.67.55-5.84.55-9.58V62.59s16.28,0,16.28,0Z"/>
      <path class="cls-1" d="m352,197.3c-1.52-2.45-2.4-5.34-2.42-8.42.52,3.81,1.36,6.56,2.42,8.42Z"/>
      <path class="cls-1" d="m381.97,188.69v.09c0,3.18-.92,6.16-2.51,8.65,1.11-1.89,1.99-4.75,2.51-8.74Z"/>
      <path class="cls-1" d="m454.97,59.26c0,5.53-2.65,10.89-7.87,13.44-3.22,1.57-6.93-.79-7.35-4.35-1.06-9.08-5.17-13.19-10.55-13.19-6.25,0-14.1,5.37-21.12,15.29-.65.92-2.06.06-1.52-.93,8.09-15.09,20.37-25.52,32.08-25.52,11.04,0,16.34,7.63,16.34,15.27Z"/>
    </g>
  </g>
</svg>