<svg width="50" height="42" viewBox="0 0 50 42" fill="none" xmlns="http://www.w3.org/2000/svg">
<path d="M17 13.7692H33V15.8695H24.5645V38H20.6678V15.8684H17V13.7692ZM31.763 6.29206C31.763 6.29206 31.763 6.3011 31.763 6.30562C31.763 6.45023 31.5524 6.4604 31.5274 6.31918C31.302 5.02676 29.9869 3.86877 27.4076 3.86877C23.7863 3.86877 21.8606 6.6581 21.8606 9.26441C21.8606 9.28136 21.8606 9.29943 21.8606 9.31638C21.8742 10.7003 19.9859 11.1296 19.4173 9.86769C19.1794 9.34011 19.0639 8.7967 19.0639 8.25894C19.0627 5.60631 21.9059 3 27.0859 3C29.928 3 31.763 4.55452 31.763 6.29206Z" fill="#221F17" stroke="#221F17"/>
</svg>
