<svg width="50" height="50" viewBox="0 0 50 50" fill="none" xmlns="http://www.w3.org/2000/svg">
<path d="M12.5 10C12.5 9.33696 12.2366 8.70107 11.7678 8.23223C11.2989 7.76339 10.6631 7.5 10 7.5C9.33698 7.5 8.7011 7.76339 8.23226 8.23223C7.76342 8.70107 7.50002 9.33696 7.50002 10V28.17C6.73999 28.6089 6.10885 29.24 5.67005 30.0001C5.23125 30.7602 5.00024 31.6224 5.00024 32.5C5.00024 33.3776 5.23125 34.2398 5.67005 34.9999C6.10885 35.76 6.73999 36.3911 7.50002 36.83V40C7.50002 40.663 7.76342 41.2989 8.23226 41.7678C8.7011 42.2366 9.33698 42.5 10 42.5C10.6631 42.5 11.2989 42.2366 11.7678 41.7678C12.2366 41.2989 12.5 40.663 12.5 40V36.83C13.2601 36.3911 13.8912 35.76 14.33 34.9999C14.7688 34.2398 14.9998 33.3776 14.9998 32.5C14.9998 31.6224 14.7688 30.7602 14.33 30.0001C13.8912 29.24 13.2601 28.6089 12.5 28.17V10ZM27.5 10C27.5 9.33696 27.2366 8.70107 26.7678 8.23223C26.299 7.76339 25.6631 7.5 25 7.5C24.337 7.5 23.7011 7.76339 23.2323 8.23223C22.7634 8.70107 22.5 9.33696 22.5 10V13.17C21.74 13.6089 21.1089 14.24 20.6701 15.0001C20.2313 15.7602 20.0002 16.6224 20.0002 17.5C20.0002 18.3776 20.2313 19.2398 20.6701 19.9999C21.1089 20.76 21.74 21.3911 22.5 21.83V40C22.5 40.663 22.7634 41.2989 23.2323 41.7678C23.7011 42.2366 24.337 42.5 25 42.5C25.6631 42.5 26.299 42.2366 26.7678 41.7678C27.2366 41.2989 27.5 40.663 27.5 40V21.83C28.2601 21.3911 28.8912 20.76 29.33 19.9999C29.7688 19.2398 29.9998 18.3776 29.9998 17.5C29.9998 16.6224 29.7688 15.7602 29.33 15.0001C28.8912 14.24 28.2601 13.6089 27.5 13.17V10ZM40 7.5C40.6631 7.5 41.299 7.76339 41.7678 8.23223C42.2366 8.70107 42.5 9.33696 42.5 10V28.17C43.2601 28.6089 43.8912 29.24 44.33 30.0001C44.7688 30.7602 44.9998 31.6224 44.9998 32.5C44.9998 33.3776 44.7688 34.2398 44.33 34.9999C43.8912 35.76 43.2601 36.3911 42.5 36.83V40C42.5 40.663 42.2366 41.2989 41.7678 41.7678C41.299 42.2366 40.6631 42.5 40 42.5C39.337 42.5 38.7011 42.2366 38.2323 41.7678C37.7634 41.2989 37.5 40.663 37.5 40V36.83C36.74 36.3911 36.1089 35.76 35.6701 34.9999C35.2313 34.2398 35.0002 33.3776 35.0002 32.5C35.0002 31.6224 35.2313 30.7602 35.6701 30.0001C36.1089 29.24 36.74 28.6089 37.5 28.17V10C37.5 9.33696 37.7634 8.70107 38.2323 8.23223C38.7011 7.76339 39.337 7.5 40 7.5Z" fill="black"/>
</svg>
