<svg width="50" height="50" viewBox="0 0 50 50" fill="none" xmlns="http://www.w3.org/2000/svg">
<path d="M26.7675 5.73245C26.2987 5.26378 25.6629 5.00049 25 5.00049C24.3371 5.00049 23.7013 5.26378 23.2325 5.73245L5.73248 23.2325C5.27708 23.704 5.0251 24.3355 5.0308 24.991C5.03649 25.6464 5.29941 26.2735 5.76293 26.737C6.22645 27.2005 6.85348 27.4634 7.50898 27.4691C8.16447 27.4748 8.79597 27.2228 9.26748 26.7675L9.99998 26.035V42.5C9.99998 43.163 10.2634 43.7989 10.7322 44.2677C11.2011 44.7366 11.8369 45 12.5 45H17.5C18.163 45 18.7989 44.7366 19.2677 44.2677C19.7366 43.7989 20 43.163 20 42.5V37.5C20 36.8369 20.2634 36.201 20.7322 35.7322C21.2011 35.2633 21.8369 35 22.5 35H27.5C28.163 35 28.7989 35.2633 29.2677 35.7322C29.7366 36.201 30 36.8369 30 37.5V42.5C30 43.163 30.2634 43.7989 30.7322 44.2677C31.2011 44.7366 31.8369 45 32.5 45H37.5C38.163 45 38.7989 44.7366 39.2677 44.2677C39.7366 43.7989 40 43.163 40 42.5V26.035L40.7325 26.7675C41.204 27.2228 41.8355 27.4748 42.491 27.4691C43.1465 27.4634 43.7735 27.2005 44.237 26.737C44.7005 26.2735 44.9635 25.6464 44.9692 24.991C44.9749 24.3355 44.7229 23.704 44.2675 23.2325L26.7675 5.73245Z" fill="black"/>
</svg>
