<svg width="50" height="50" viewBox="0 0 50 50" fill="none" xmlns="http://www.w3.org/2000/svg">
<path fill-rule="evenodd" clip-rule="evenodd" d="M45 25C45 30.3043 42.8929 35.3914 39.1421 39.1421C35.3914 42.8929 30.3043 45 25 45C19.6957 45 14.6086 42.8929 10.8579 39.1421C7.10714 35.3914 5 30.3043 5 25C5 19.6957 7.10714 14.6086 10.8579 10.8579C14.6086 7.10714 19.6957 5 25 5C30.3043 5 35.3914 7.10714 39.1421 10.8579C42.8929 14.6086 45 19.6957 45 25ZM27.5 15C27.5 15.663 27.2366 16.2989 26.7678 16.7678C26.2989 17.2366 25.663 17.5 25 17.5C24.337 17.5 23.7011 17.2366 23.2322 16.7678C22.7634 16.2989 22.5 15.663 22.5 15C22.5 14.337 22.7634 13.7011 23.2322 13.2322C23.7011 12.7634 24.337 12.5 25 12.5C25.663 12.5 26.2989 12.7634 26.7678 13.2322C27.2366 13.7011 27.5 14.337 27.5 15ZM22.5 22.5C21.837 22.5 21.2011 22.7634 20.7322 23.2322C20.2634 23.7011 20 24.337 20 25C20 25.663 20.2634 26.2989 20.7322 26.7678C21.2011 27.2366 21.837 27.5 22.5 27.5V35C22.5 35.663 22.7634 36.2989 23.2322 36.7678C23.7011 37.2366 24.337 37.5 25 37.5H27.5C28.163 37.5 28.7989 37.2366 29.2678 36.7678C29.7366 36.2989 30 35.663 30 35C30 34.337 29.7366 33.7011 29.2678 33.2322C28.7989 32.7634 28.163 32.5 27.5 32.5V25C27.5 24.337 27.2366 23.7011 26.7678 23.2322C26.2989 22.7634 25.663 22.5 25 22.5H22.5Z" fill="black"/>
</svg>
