<svg width="50" height="50" viewBox="0 0 50 50" fill="none" xmlns="http://www.w3.org/2000/svg">
<path fill-rule="evenodd" clip-rule="evenodd" d="M25 7.5C25.663 7.5 26.2989 7.76339 26.7678 8.23223C27.2366 8.70107 27.5 9.33696 27.5 10V22.5H40C40.663 22.5 41.2989 22.7634 41.7678 23.2322C42.2366 23.7011 42.5 24.337 42.5 25C42.5 25.663 42.2366 26.2989 41.7678 26.7678C41.2989 27.2366 40.663 27.5 40 27.5H27.5V40C27.5 40.663 27.2366 41.2989 26.7678 41.7678C26.2989 42.2366 25.663 42.5 25 42.5C24.337 42.5 23.7011 42.2366 23.2322 41.7678C22.7634 41.2989 22.5 40.663 22.5 40V27.5H10C9.33696 27.5 8.70107 27.2366 8.23223 26.7678C7.76339 26.2989 7.5 25.663 7.5 25C7.5 24.337 7.76339 23.7011 8.23223 23.2322C8.70107 22.7634 9.33696 22.5 10 22.5H22.5V10C22.5 9.33696 22.7634 8.70107 23.2322 8.23223C23.7011 7.76339 24.337 7.5 25 7.5Z" fill="black"/>
</svg>
