<svg width="50" height="50" viewBox="0 0 50 50" fill="none" xmlns="http://www.w3.org/2000/svg">
<path fill-rule="evenodd" clip-rule="evenodd" d="M25 22.5C26.9891 22.5 28.8968 21.7098 30.3033 20.3033C31.7098 18.8968 32.5 16.9891 32.5 15C32.5 13.0109 31.7098 11.1032 30.3033 9.6967C28.8968 8.29018 26.9891 7.5 25 7.5C23.0109 7.5 21.1032 8.29018 19.6967 9.6967C18.2902 11.1032 17.5 13.0109 17.5 15C17.5 16.9891 18.2902 18.8968 19.6967 20.3033C21.1032 21.7098 23.0109 22.5 25 22.5ZM7.5 45C7.5 42.7019 7.95265 40.4262 8.83211 38.303C9.71157 36.1798 11.0006 34.2507 12.6256 32.6256C14.2507 31.0006 16.1798 29.7116 18.303 28.8321C20.4262 27.9527 22.7019 27.5 25 27.5C27.2981 27.5 29.5738 27.9527 31.697 28.8321C33.8202 29.7116 35.7493 31.0006 37.3744 32.6256C38.9994 34.2507 40.2884 36.1798 41.1679 38.303C42.0473 40.4262 42.5 42.7019 42.5 45H7.5Z" fill="black"/>
</svg>
